<svg width="96" height="96" viewBox="0 0 96 96" fill="none" xmlns="http://www.w3.org/2000/svg">
<rect width="96" height="96" fill="#F2F2F2"/>
<g id="Artboard" clip-path="url(#clip0_0_1)">
<rect width="1800" height="4271" transform="translate(-472 -1600)" fill="white"/>
<rect id="Background" x="-472" y="-1600" width="1800" height="4271" fill="black" fill-opacity="0.01"/>
<g id="How It Works" clip-path="url(#clip1_0_1)">
<path id="Rectangle 9" fill-rule="evenodd" clip-rule="evenodd" d="M-457 -80.0001H1313V257H-457V-80.0001Z" fill="#333333"/>
<g id="Shape 1" opacity="0.5">
<mask id="path-3-inside-1_0_1" fill="white">
<path fill-rule="evenodd" clip-rule="evenodd" d="M41 60.9997C41 60.9997 233.477 -151.458 434.059 60.9997C434.059 60.9997 610.327 -152.754 818 60.9997"/>
</mask>
<path fill-rule="evenodd" clip-rule="evenodd" d="M41 60.9997C41 60.9997 233.477 -151.458 434.059 60.9997C434.059 60.9997 610.327 -152.754 818 60.9997" fill="black" fill-opacity="0.01"/>
<path d="M434.059 60.9997L433.332 61.6862L434.109 62.5101L434.83 61.6359L434.059 60.9997ZM41 60.9997C41.7411 61.6711 41.7415 61.6707 41.7426 61.6694C41.744 61.6679 41.7458 61.6659 41.7486 61.6629C41.754 61.6569 41.7623 61.6478 41.7736 61.6355C41.7961 61.6108 41.8302 61.5735 41.8759 61.5239C41.9674 61.4246 42.105 61.2759 42.2882 61.0802C42.6547 60.6888 43.2033 60.1095 43.9285 59.3617C45.3788 57.8662 47.5351 55.6968 50.3525 53.0092C55.9875 47.6336 64.2652 40.1861 74.8255 31.9099C95.9504 15.3538 126.186 -4.50037 162.652 -17.7321C199.113 -30.9616 241.783 -37.5646 287.812 -27.6535C333.836 -17.7435 383.302 8.69479 433.332 61.6862L434.786 60.3132C384.524 7.07554 334.712 -19.6007 288.233 -29.6087C241.759 -39.6156 198.701 -32.9399 161.97 -19.6121C125.245 -6.28658 94.8244 13.6952 73.5918 30.3357C62.9732 38.6577 54.6466 46.1487 48.972 51.562C46.1346 54.2688 43.9598 56.4565 42.4927 57.9694C41.7591 58.7259 41.2025 59.3136 40.8283 59.7132C40.6412 59.9131 40.4997 60.0658 40.4046 60.1692C40.357 60.2208 40.3211 60.2601 40.2967 60.2867C40.2846 60.3001 40.2754 60.3102 40.269 60.3171C40.2659 60.3206 40.2633 60.3234 40.2618 60.3251C40.26 60.3271 40.2589 60.3283 41 60.9997ZM434.059 60.9997C434.83 61.6359 434.831 61.6355 434.832 61.6343C434.833 61.6328 434.834 61.6308 434.837 61.6278C434.842 61.6218 434.849 61.6127 434.86 61.6003C434.88 61.5756 434.911 61.5382 434.953 61.4883C435.037 61.3886 435.163 61.2392 435.331 61.0425C435.667 60.6491 436.171 60.0667 436.837 59.3147C438.171 57.8108 440.156 55.6292 442.759 52.926C447.964 47.5195 455.636 40.0289 465.491 31.7045C485.205 15.052 513.632 -4.91622 548.509 -18.2236C583.377 -31.5279 624.68 -38.1711 670.183 -28.2008C715.686 -18.2306 765.474 8.3711 817.283 61.6965L818.717 60.3029C766.689 6.75146 716.567 -20.0852 670.611 -30.1545C624.657 -40.2236 582.954 -33.5071 547.796 -20.0922C512.646 -6.68042 484.026 13.4302 464.2 30.1767C454.285 38.5518 446.563 46.0907 441.318 51.5389C438.695 54.2631 436.691 56.465 435.341 57.9879C434.666 58.7494 434.154 59.3411 433.81 59.7436C433.638 59.9448 433.508 60.0987 433.421 60.2028C433.377 60.2549 433.344 60.2945 433.322 60.3214C433.311 60.3348 433.302 60.3451 433.297 60.3521C433.294 60.3556 433.291 60.3585 433.29 60.3602C433.288 60.3623 433.287 60.3635 434.059 60.9997Z" fill="white" mask="url(#path-3-inside-1_0_1)"/>
</g>
<g id="Search">
<path id="Ellipse 1" fill-rule="evenodd" clip-rule="evenodd" d="M48 -0.000200033C74.5097 -0.000200033 95.9999 21.4902 95.9999 47.9998C95.9999 74.5096 74.5097 96 48 96C21.4903 96 -0.00010097 74.5096 -0.00010097 47.9998C-0.00010097 21.4902 21.4903 -0.000200033 48 -0.000200033Z" fill="#333333"/>
<path id="Combined shape 831" fill-rule="evenodd" clip-rule="evenodd" d="M76.2656 73.8123L73.3124 76.7656L56.9999 60.4529C56.0617 61.2968 55.0312 62.0483 53.9062 62.7031C52.7812 63.3601 51.6079 63.9224 50.3906 64.3906C49.1711 64.8608 47.8813 65.2123 46.5233 65.4453C45.1633 65.6803 43.8273 65.7969 42.5156 65.7969C39.3273 65.7969 36.35 65.1881 33.5859 63.9685C30.8195 62.7514 28.4047 61.11 26.3437 59.0467C24.2804 56.9856 22.6633 54.571 21.4921 51.8046C20.3188 49.0404 19.7343 46.1093 19.7343 43.0155C19.7343 39.8295 20.3188 36.8521 21.4921 34.0859C22.6633 31.3218 24.2804 28.9069 26.3437 26.8436C28.4047 24.7826 30.8195 23.1653 33.5859 21.992C36.35 20.821 39.3273 20.2342 42.5156 20.2342C45.6094 20.2342 48.5383 20.821 51.3047 21.992C54.0688 23.1653 56.4836 24.7826 58.5469 26.8436C60.6079 28.9069 62.2493 31.3218 63.4687 34.0859C64.686 36.8521 65.2968 39.8295 65.2968 43.0155C65.2968 44.3293 65.1781 45.6653 64.9453 47.0232C64.7101 48.3834 64.3585 49.6733 63.8906 50.8904C63.4203 52.1101 62.8579 53.2811 62.2031 54.4061C61.5461 55.531 60.7968 56.5638 59.9531 57.4999L76.2656 73.8123ZM22.1249 43.0155C22.1249 45.828 22.6391 48.4537 23.6718 50.8904C24.7023 53.3295 26.1548 55.485 28.0312 57.3593C29.9054 59.2358 32.0851 60.7123 34.5703 61.7889C37.0531 62.8677 39.703 63.4062 42.5156 63.4062C45.3281 63.4062 47.9516 62.8677 50.3906 61.7889C52.8273 60.7123 54.9829 59.2358 56.8593 57.3593C58.7336 55.485 60.2101 53.3295 61.289 50.8904C62.3657 48.4537 62.9062 45.828 62.9062 43.0155C62.9062 40.203 62.3657 37.5552 61.289 35.0701C60.2101 32.5872 58.7336 30.4076 56.8593 28.5312C54.9829 26.6568 52.8273 25.2044 50.3906 24.1716C47.9516 23.1412 45.3281 22.6248 42.5156 22.6248C39.703 22.6248 37.0531 23.1412 34.5703 24.1716C32.0851 25.2044 29.9054 26.6568 28.0312 28.5312C26.1548 30.4076 24.7023 32.5872 23.6718 35.0701C22.6391 37.5552 22.1249 40.203 22.1249 43.0155Z" fill="#5474FD"/>
</g>
</g>
</g>
<defs>
<clipPath id="clip0_0_1">
<rect width="1800" height="4271" fill="white" transform="translate(-472 -1600)"/>
</clipPath>
<clipPath id="clip1_0_1">
<rect width="1773" height="340" fill="white" transform="translate(-459 -82)"/>
</clipPath>
</defs>
</svg>
